<svg width="1600" height="1600" viewBox="0 0 1200 1200" xmlns="http://www.w3.org/2000/svg"><rect style="fill:#fff;fill-opacity:1;fill-rule:evenodd;stroke:none;stroke-width:48.4;stroke-linecap:round;stroke-linejoin:round;stroke-dasharray:none;stroke-opacity:1" width="1158.467" height="1162.422" x="22.619" y="19.598" ry="86.408"/><path d="M51.562 87.891h70.312v386.72H51.562z"/><path d="M86.719 282.42V87.89l250.78 97.266z"/><path d="M86.723 317.58a35.168 35.168 0 0 1-19.867-6.148 35.163 35.163 0 0 1-15.293-29.008V87.894a35.164 35.164 0 0 1 15.293-29.008 35.173 35.173 0 0 1 32.574-3.77l250.78 97.266c13.531 5.246 22.445 18.266 22.445 32.777s-8.914 27.531-22.445 32.777L99.43 315.202a35.124 35.124 0 0 1-12.707 2.379zm35.152-178.34v91.848l118.4-45.926zM827.34 760.55h70.312v386.72H827.34z"/><path d="M862.5 955.08V760.55l250.78 97.266z"/><path d="M862.5 990.23a35.168 35.168 0 0 1-19.867-6.148 35.163 35.163 0 0 1-15.293-29.008v-194.53a35.164 35.164 0 0 1 15.293-29.008 35.162 35.162 0 0 1 32.574-3.77l250.78 97.266c13.531 5.246 22.445 18.266 22.445 32.777s-8.914 27.531-22.445 32.777l-250.78 97.266a35.124 35.124 0 0 1-12.707 2.379zm35.152-178.34v91.848l118.4-45.926z"/><path d="M773.44 959.77H307.03c-91.754 0-166.41-74.652-166.41-166.41s74.652-166.41 166.41-166.41h525c52.984 0 96.094-43.109 96.094-96.094s-43.109-96.094-96.094-96.094H384.37V364.45h447.66c91.754 0 166.41 74.652 166.41 166.41s-74.652 166.41-166.41 166.41h-525c-52.984 0-96.094 43.109-96.094 96.094s43.109 96.094 96.094 96.094h466.41zM222.66 364.45h81.156v70.312H222.66z"/><path d="m700.83 1049.2-51.664-47.691 71.566-77.531-71.383-76.141 51.297-48.09 93.75 100c12.605 13.445 12.688 34.344.184 47.891z"/></svg>